<?xml version="1.0"?>
<svg xmlns="http://www.w3.org/2000/svg" xmlns:xlink="http://www.w3.org/1999/xlink" xmlns:svgjs="http://svgjs.com/svgjs" version="1.1" width="512" height="512" x="0" y="0" viewBox="0 0 511.951 511.951" style="enable-background:new 0 0 512 512" xml:space="preserve" class=""><g><g xmlns="http://www.w3.org/2000/svg"><path d="m250.702 240.02c3.307 1.226 7.008 1.312 10.547 0l189.727-71.147v164.026c4.818-1.212 9.811-1.926 15-1.926s10.182.714 15 1.926v-175.277l21.273-7.603c12.923-4.858 12.948-23.228 0-28.096l-241-90c-3.399-1.26-7.149-1.26-10.547 0l-241 90c-12.923 4.858-12.948 23.228 0 28.096z" fill="#ffffff" data-original="#000000" style="" class=""/><path d="m465.975 360.972c-25.649 0-45 32.241-45 75v30c0 8.291 6.709 15 15 15h60c8.291 0 15-6.709 15-15v-30c0-42.759-19.35-75-45-75z" fill="#ffffff" data-original="#000000" style="" class=""/><path d="m411.121 215.861-139.34 52.255c-10.437 3.855-21.473 3.753-31.509.029l-139.442-52.286c-12.512 45.854-9.33 75.947-9.855 85.113 0 10.611 10.785 17.856 20.552 13.931.352-.132 35.42-13.931 69.448-13.931 31.655 0 65.317 26.455 65.654 26.733 5.364 4.268 13.171 4.408 18.72-.015 9.288-7.441 39.185-26.719 65.626-26.719 34.028 0 69.097 13.799 69.448 13.931 9.744 3.916 20.552-3.3 20.552-13.931-.503-8.795 2.584-39.531-9.854-85.11z" fill="#ffffff" data-original="#000000" style="" class=""/></g></g></svg>
